<svg width="134" height="66" viewBox="0 0 134 66" fill="none" xmlns="http://www.w3.org/2000/svg">
<path d="M1.44141 37V12.1445H4.46484V37H1.44141ZM6.1875 37V34.1523H8.96484C9.87891 34.1523 10.6523 33.7422 11.2852 32.9219C11.5898 32.5 11.7422 32.1016 11.7422 31.7266V23.2188C11.7422 22.5156 11.3555 21.8945 10.582 21.3555C10.0664 21.0039 9.53906 20.8281 9 20.8281H6.1875V17.9805H9C10.875 17.9805 12.3984 18.7656 13.5703 20.3359C14.25 21.25 14.6016 22.1641 14.625 23.0781V31.7969C14.625 32.875 14.1562 33.9531 13.2188 35.0312C12.0703 36.3203 10.6406 36.9766 8.92969 37H6.1875ZM17.0508 31.7969V23.0781C17.0742 22 17.5898 20.9336 18.5977 19.8789C19.8164 18.6367 21.293 18.0039 23.0273 17.9805V20.7578C21.9023 20.7578 21.0234 21.25 20.3906 22.2344C20.1328 22.6562 20.0039 23.043 20.0039 23.3945V25.7852H27.8789V23.3945C27.8789 22.3398 27.3398 21.5664 26.2617 21.0742C25.7695 20.8398 25.2656 20.7227 24.75 20.7227V17.9805C26.3672 17.9805 27.8086 18.5547 29.0742 19.7031C30.1289 20.7109 30.668 21.8242 30.6914 23.043V28.6328H20.0039V31.7969C20.0039 32.4531 20.3789 33.0625 21.1289 33.625C21.7383 34.0469 22.3828 34.2578 23.0625 34.2578V37C20.9297 37 19.2539 36.1328 18.0352 34.3984C17.3789 33.4844 17.0508 32.6172 17.0508 31.7969ZM24.75 37V34.2227C26.1562 34.2227 27.2109 33.6133 27.9141 32.3945C28.0547 32.1367 28.1602 31.8906 28.2305 31.6562L30.7266 32.5703C30.3047 34.1875 29.3438 35.4062 27.8438 36.2266C26.8828 36.7422 25.8516 37 24.75 37ZM33.5039 31.7969V23.0781C33.5273 22 34.043 20.9336 35.0508 19.8789C36.2695 18.6367 37.7461 18.0039 39.4805 17.9805V20.7578C38.3555 20.7578 37.4766 21.25 36.8438 22.2344C36.5859 22.6562 36.457 23.043 36.457 23.3945V25.7852H44.332V23.3945C44.332 22.3398 43.793 21.5664 42.7148 21.0742C42.2227 20.8398 41.7188 20.7227 41.2031 20.7227V17.9805C42.8203 17.9805 44.2617 18.5547 45.5273 19.7031C46.582 20.7109 47.1211 21.8242 47.1445 23.043V28.6328H36.457V31.7969C36.457 32.4531 36.832 33.0625 37.582 33.625C38.1914 34.0469 38.8359 34.2578 39.5156 34.2578V37C37.3828 37 35.707 36.1328 34.4883 34.3984C33.832 33.4844 33.5039 32.6172 33.5039 31.7969ZM41.2031 37V34.2227C42.6094 34.2227 43.6641 33.6133 44.3672 32.3945C44.5078 32.1367 44.6133 31.8906 44.6836 31.6562L47.1797 32.5703C46.7578 34.1875 45.7969 35.4062 44.2969 36.2266C43.3359 36.7422 42.3047 37 41.2031 37ZM49.957 31.7969V23.0781C49.9805 22 50.4961 20.9336 51.5039 19.8789C52.7227 18.6367 54.1992 18.0039 55.9336 17.9805V20.7578C54.8086 20.7578 53.9297 21.25 53.2969 22.2344C53.0391 22.6562 52.9102 23.043 52.9102 23.3945V25.7852H60.7852V23.3945C60.7852 22.3398 60.2461 21.5664 59.168 21.0742C58.6758 20.8398 58.1719 20.7227 57.6562 20.7227V17.9805C59.2734 17.9805 60.7148 18.5547 61.9805 19.7031C63.0352 20.7109 63.5742 21.8242 63.5977 23.043V28.6328H52.9102V31.7969C52.9102 32.4531 53.2852 33.0625 54.0352 33.625C54.6445 34.0469 55.2891 34.2578 55.9688 34.2578V37C53.8359 37 52.1602 36.1328 50.9414 34.3984C50.2852 33.4844 49.957 32.6172 49.957 31.7969ZM57.6562 37V34.2227C59.0625 34.2227 60.1172 33.6133 60.8203 32.3945C60.9609 32.1367 61.0664 31.8906 61.1367 31.6562L63.6328 32.5703C63.2109 34.1875 62.25 35.4062 60.75 36.2266C59.7891 36.7422 58.7578 37 57.6562 37ZM66.4805 37V12.1797H69.5039V37H66.4805ZM70.3828 27.4727L77.5547 18.0156H81.1055L73.8633 27.4727L81.1406 37H77.625L70.3828 27.4727ZM83.0742 16.8906V14.0078L85.0781 12.3906H88.1719V37H85.0781V16.8906H83.0742ZM97.3125 37.0352C95.2734 37.0352 93.5859 36.2148 92.25 34.5742C91.1719 33.2617 90.6328 31.7617 90.6328 30.0742C90.6562 27.5664 91.5352 25.7852 93.2695 24.7305C91.7227 23.6992 90.8672 22.1289 90.7031 20.0195C90.7031 19.832 90.7031 19.6562 90.7031 19.4922C90.7031 17.3828 91.4883 15.6133 93.0586 14.1836C94.3477 13.0117 95.7891 12.4258 97.3828 12.4258V15.2734C95.7188 15.3906 94.5703 16.2227 93.9375 17.7695C93.7266 18.332 93.6211 18.918 93.6211 19.5273C93.6211 21.0977 94.2422 22.2109 95.4844 22.8672C96.0469 23.125 96.668 23.2773 97.3477 23.3242V26.1367C95.4727 26.2773 94.2773 27.0508 93.7617 28.457C93.5977 28.9023 93.5156 29.3828 93.5156 29.8984C93.5156 31.7969 94.2773 33.0977 95.8008 33.8008C96.2695 34.0117 96.7734 34.1406 97.3125 34.1875V37.0352ZM99.2812 37.0352V34.1875C100.922 34.0469 102.059 33.2969 102.691 31.9375C102.973 31.3281 103.113 30.6484 103.113 29.8984C103.113 28.0469 102.211 26.8633 100.406 26.3477C100.031 26.2305 99.6562 26.1602 99.2812 26.1367V23.3242C101.086 23.2305 102.246 22.4336 102.762 20.9336C102.926 20.4648 103.008 19.9961 103.008 19.5273C103.008 18.0273 102.469 16.8672 101.391 16.0469C100.758 15.6016 100.043 15.3438 99.2461 15.2734V12.4258C101.168 12.4258 102.809 13.2227 104.168 14.8164C105.316 16.1992 105.891 17.7578 105.891 19.4922C105.891 21.7188 105.117 23.4062 103.57 24.5547C103.477 24.625 103.395 24.6836 103.324 24.7305C105.059 25.7852 105.938 27.5664 105.961 30.0742C105.961 32.207 105.164 33.9766 103.57 35.3828C102.305 36.4844 100.875 37.0352 99.2812 37.0352Z" fill="white"/>
<path d="M6.156 63H5.34V59.508C5.34 58.804 5.216 58.276 4.968 57.924C4.72 57.564 4.364 57.384 3.9 57.384C3.596 57.384 3.292 57.464 2.988 57.624C2.692 57.776 2.428 57.988 2.196 58.26C1.972 58.524 1.812 58.828 1.716 59.172V63H0.9V54.24H1.716V58.164C1.964 57.7 2.308 57.332 2.748 57.06C3.196 56.78 3.672 56.64 4.176 56.64C4.536 56.64 4.84 56.704 5.088 56.832C5.344 56.96 5.548 57.148 5.7 57.396C5.86 57.636 5.976 57.92 6.048 58.248C6.12 58.568 6.156 58.932 6.156 59.34V63ZM12.2775 62.7C12.2135 62.724 12.1135 62.768 11.9775 62.832C11.8415 62.896 11.6775 62.952 11.4855 63C11.2935 63.048 11.0855 63.072 10.8615 63.072C10.6295 63.072 10.4095 63.028 10.2015 62.94C10.0015 62.852 9.8415 62.72 9.7215 62.544C9.6015 62.36 9.5415 62.136 9.5415 61.872V57.396H8.6775V56.748H9.5415V54.636H10.3575V56.748H11.7975V57.396H10.3575V61.644C10.3735 61.868 10.4535 62.036 10.5975 62.148C10.7495 62.26 10.9215 62.316 11.1135 62.316C11.3375 62.316 11.5415 62.28 11.7255 62.208C11.9095 62.128 12.0215 62.072 12.0615 62.04L12.2775 62.7ZM24.037 63H23.221V59.508C23.221 58.78 23.105 58.244 22.873 57.9C22.641 57.556 22.297 57.384 21.841 57.384C21.369 57.384 20.945 57.552 20.569 57.888C20.201 58.224 19.941 58.656 19.789 59.184V63H18.973V59.508C18.973 58.772 18.861 58.236 18.637 57.9C18.413 57.556 18.069 57.384 17.605 57.384C17.141 57.384 16.721 57.548 16.345 57.876C15.969 58.204 15.705 58.636 15.553 59.172V63H14.737V56.748H15.481V58.164C15.745 57.676 16.081 57.3 16.489 57.036C16.905 56.772 17.365 56.64 17.869 56.64C18.389 56.64 18.809 56.788 19.129 57.084C19.449 57.38 19.645 57.768 19.717 58.248C20.005 57.72 20.349 57.32 20.749 57.048C21.157 56.776 21.617 56.64 22.129 56.64C22.481 56.64 22.777 56.704 23.017 56.832C23.265 56.96 23.461 57.144 23.605 57.384C23.757 57.616 23.865 57.9 23.929 58.236C24.001 58.564 24.037 58.932 24.037 59.34V63ZM27.2404 54.24H28.0564V61.584C28.0564 61.896 28.1124 62.1 28.2244 62.196C28.3364 62.292 28.4724 62.34 28.6324 62.34C28.7764 62.34 28.9204 62.324 29.0644 62.292C29.2084 62.26 29.3324 62.228 29.4364 62.196L29.5804 62.856C29.4284 62.92 29.2404 62.972 29.0164 63.012C28.8004 63.052 28.6124 63.072 28.4524 63.072C28.0844 63.072 27.7884 62.964 27.5644 62.748C27.3484 62.532 27.2404 62.236 27.2404 61.86V54.24ZM31.583 60.108V59.352H35.087V60.108H31.583ZM43.4615 63H42.6455V59.508C42.6455 58.804 42.5215 58.276 42.2735 57.924C42.0255 57.564 41.6695 57.384 41.2055 57.384C40.9015 57.384 40.5975 57.464 40.2935 57.624C39.9975 57.776 39.7335 57.988 39.5015 58.26C39.2775 58.524 39.1175 58.828 39.0215 59.172V63H38.2055V54.24H39.0215V58.164C39.2695 57.7 39.6135 57.332 40.0535 57.06C40.5015 56.78 40.9775 56.64 41.4815 56.64C41.8415 56.64 42.1455 56.704 42.3935 56.832C42.6495 56.96 42.8535 57.148 43.0055 57.396C43.1655 57.636 43.2815 57.92 43.3535 58.248C43.4255 58.568 43.4615 58.932 43.4615 59.34V63ZM49.3056 63.12C48.8576 63.12 48.4416 63.036 48.0576 62.868C47.6816 62.692 47.3536 62.456 47.0736 62.16C46.8016 61.856 46.5896 61.512 46.4376 61.128C46.2856 60.736 46.2096 60.324 46.2096 59.892C46.2096 59.444 46.2856 59.028 46.4376 58.644C46.5896 58.252 46.8056 57.908 47.0856 57.612C47.3656 57.308 47.6936 57.072 48.0696 56.904C48.4536 56.728 48.8696 56.64 49.3176 56.64C49.7656 56.64 50.1776 56.728 50.5536 56.904C50.9296 57.072 51.2576 57.308 51.5376 57.612C51.8176 57.908 52.0336 58.252 52.1856 58.644C52.3376 59.028 52.4136 59.444 52.4136 59.892C52.4136 60.324 52.3376 60.736 52.1856 61.128C52.0336 61.512 51.8176 61.856 51.5376 62.16C51.2656 62.456 50.9376 62.692 50.5536 62.868C50.1776 63.036 49.7616 63.12 49.3056 63.12ZM47.0376 59.904C47.0376 60.368 47.1376 60.792 47.3376 61.176C47.5456 61.552 47.8216 61.852 48.1656 62.076C48.5096 62.292 48.8896 62.4 49.3056 62.4C49.7216 62.4 50.1016 62.288 50.4456 62.064C50.7896 61.84 51.0656 61.536 51.2736 61.152C51.4816 60.76 51.5856 60.336 51.5856 59.88C51.5856 59.416 51.4816 58.992 51.2736 58.608C51.0656 58.224 50.7896 57.92 50.4456 57.696C50.1016 57.472 49.7216 57.36 49.3056 57.36C48.8896 57.36 48.5096 57.476 48.1656 57.708C47.8296 57.94 47.5576 58.248 47.3496 58.632C47.1416 59.008 47.0376 59.432 47.0376 59.904ZM55.1583 60.42V56.748H55.9743V60.276C55.9743 60.988 56.0943 61.52 56.3343 61.872C56.5823 62.224 56.9463 62.4 57.4263 62.4C57.7463 62.4 58.0543 62.332 58.3503 62.196C58.6543 62.052 58.9223 61.852 59.1543 61.596C59.3863 61.332 59.5623 61.028 59.6823 60.684V56.748H60.4983V62.016C60.4983 62.128 60.5223 62.212 60.5703 62.268C60.6183 62.316 60.6903 62.344 60.7863 62.352V63C60.6903 63.008 60.6143 63.012 60.5583 63.012C60.5023 63.02 60.4503 63.024 60.4023 63.024C60.2423 63.008 60.1023 62.944 59.9823 62.832C59.8703 62.72 59.8103 62.584 59.8023 62.424L59.7783 61.584C59.5063 62.064 59.1343 62.44 58.6623 62.712C58.1983 62.984 57.6943 63.12 57.1503 63.12C56.4943 63.12 55.9983 62.892 55.6623 62.436C55.3263 61.98 55.1583 61.308 55.1583 60.42ZM65.8353 63.12C65.3233 63.12 64.8473 63.036 64.4073 62.868C63.9673 62.7 63.5873 62.444 63.2673 62.1L63.6033 61.524C63.9553 61.852 64.3073 62.092 64.6593 62.244C65.0193 62.388 65.3993 62.46 65.7993 62.46C66.2873 62.46 66.6833 62.364 66.9873 62.172C67.2913 61.972 67.4433 61.688 67.4433 61.32C67.4433 61.072 67.3673 60.884 67.2153 60.756C67.0713 60.62 66.8593 60.512 66.5793 60.432C66.3073 60.344 65.9793 60.252 65.5953 60.156C65.1633 60.036 64.7993 59.912 64.5033 59.784C64.2153 59.648 63.9953 59.48 63.8433 59.28C63.6993 59.072 63.6273 58.804 63.6273 58.476C63.6273 58.068 63.7273 57.732 63.9273 57.468C64.1353 57.196 64.4153 56.992 64.7673 56.856C65.1273 56.712 65.5273 56.64 65.9673 56.64C66.4473 56.64 66.8713 56.716 67.2393 56.868C67.6073 57.02 67.9073 57.232 68.1393 57.504L67.7433 58.056C67.5193 57.8 67.2513 57.612 66.9393 57.492C66.6353 57.364 66.2953 57.3 65.9193 57.3C65.6633 57.3 65.4193 57.336 65.1873 57.408C64.9553 57.472 64.7633 57.584 64.6113 57.744C64.4673 57.896 64.3953 58.108 64.3953 58.38C64.3953 58.604 64.4513 58.78 64.5633 58.908C64.6753 59.028 64.8433 59.132 65.0673 59.22C65.2913 59.3 65.5673 59.388 65.8953 59.484C66.3673 59.612 66.7793 59.744 67.1313 59.88C67.4833 60.008 67.7553 60.176 67.9473 60.384C68.1393 60.592 68.2353 60.884 68.2353 61.26C68.2353 61.844 68.0153 62.3 67.5753 62.628C67.1353 62.956 66.5553 63.12 65.8353 63.12ZM73.7241 63.12C73.2761 63.12 72.8601 63.036 72.4761 62.868C72.0921 62.692 71.7601 62.456 71.4801 62.16C71.2001 61.856 70.9801 61.508 70.8201 61.116C70.6681 60.724 70.5921 60.304 70.5921 59.856C70.5921 59.272 70.7241 58.736 70.9881 58.248C71.2601 57.76 71.6321 57.372 72.1041 57.084C72.5761 56.788 73.1121 56.64 73.7121 56.64C74.3281 56.64 74.8641 56.788 75.3201 57.084C75.7841 57.38 76.1481 57.772 76.4121 58.26C76.6761 58.74 76.8081 59.268 76.8081 59.844C76.8081 59.908 76.8081 59.972 76.8081 60.036C76.8081 60.092 76.8041 60.136 76.7961 60.168H71.4441C71.4841 60.616 71.6081 61.016 71.8161 61.368C72.0321 61.712 72.3081 61.988 72.6441 62.196C72.9881 62.396 73.3601 62.496 73.7601 62.496C74.1681 62.496 74.5521 62.392 74.9121 62.184C75.2801 61.976 75.5361 61.704 75.6801 61.368L76.3881 61.56C76.2601 61.856 76.0641 62.124 75.8001 62.364C75.5361 62.604 75.2241 62.792 74.8641 62.928C74.5121 63.056 74.1321 63.12 73.7241 63.12ZM71.4201 59.58H76.0401C76.0081 59.124 75.8841 58.724 75.6681 58.38C75.4601 58.036 75.1841 57.768 74.8401 57.576C74.5041 57.376 74.1321 57.276 73.7241 57.276C73.3161 57.276 72.9441 57.376 72.6081 57.576C72.2721 57.768 71.9961 58.04 71.7801 58.392C71.5721 58.736 71.4521 59.132 71.4201 59.58Z" fill="white"/>
</svg>
